<svg width="162" height="50" viewBox="0 0 162 50" fill="none" xmlns="http://www.w3.org/2000/svg">
<rect x="1.19977" y="0.802186" width="159.962" height="47.5764" rx="7.18577" fill="white" stroke="#CAD6FE" stroke-width="1.60046"/>
<path d="M80.6343 27.9467C79.6521 27.9513 78.6932 28.2468 77.8787 28.7959C77.0642 29.345 76.4307 30.123 76.058 31.0318C75.6853 31.9407 75.5902 32.9395 75.7846 33.9024C75.9791 34.8652 76.4544 35.7488 77.1506 36.4418C77.8468 37.1347 78.7327 37.6059 79.6964 37.7958C80.6601 37.9858 81.6585 37.8859 82.5656 37.509C83.4727 37.132 84.2477 36.4948 84.793 35.6778C85.3382 34.8607 85.6292 33.9005 85.6292 32.9182C85.6388 32.2607 85.5159 31.608 85.268 30.999C85.02 30.39 84.6521 29.8371 84.186 29.3732C83.72 28.9094 83.1654 28.544 82.5552 28.2989C81.945 28.0539 81.2918 27.9341 80.6343 27.9467ZM80.6343 35.9362C80.0302 35.9784 79.4274 35.838 78.9042 35.5331C78.381 35.2282 77.9616 34.7729 77.7006 34.2265C77.4395 33.6801 77.3489 33.0678 77.4405 32.4692C77.5321 31.8706 77.8016 31.3134 78.2141 30.87C78.6265 30.4266 79.1628 30.1175 79.7532 29.983C80.3437 29.8484 80.9609 29.8946 81.5247 30.1155C82.0886 30.3364 82.5729 30.7219 82.9148 31.2217C83.2567 31.7215 83.4403 32.3126 83.4418 32.9182C83.4606 33.3019 83.4024 33.6855 83.2707 34.0463C83.1389 34.4072 82.9362 34.738 82.6746 35.0193C82.4129 35.3006 82.0976 35.5266 81.7472 35.6841C81.3968 35.8416 81.0184 35.9273 80.6343 35.9362ZM69.7438 27.9467C68.7611 27.949 67.801 28.2425 66.985 28.7902C66.169 29.3379 65.5336 30.1152 65.1591 31.0238C64.7846 31.9324 64.6878 32.9316 64.881 33.8952C65.0741 34.8588 65.5485 35.7436 66.2443 36.4377C66.94 37.1318 67.8259 37.6041 68.7899 37.795C69.754 37.9859 70.753 37.8868 71.6607 37.5101C72.5685 37.1335 73.3442 36.4963 73.89 35.679C74.4357 34.8617 74.727 33.901 74.727 32.9182C74.7366 32.2607 74.6137 31.608 74.3658 30.999C74.1178 30.39 73.7499 29.8371 73.2838 29.3732C72.8178 28.9094 72.2632 28.544 71.653 28.2989C71.0428 28.0539 70.3896 27.9341 69.7321 27.9467H69.7438ZM69.7438 35.9362C69.1394 35.9808 68.5356 35.8425 68.011 35.5391C67.4863 35.2358 67.0651 34.7815 66.8023 34.2355C66.5394 33.6894 66.447 33.0769 66.5371 32.4776C66.6273 31.8783 66.8957 31.32 67.3076 30.8754C67.7194 30.4308 68.2556 30.1205 68.8462 29.9849C69.4369 29.8493 70.0547 29.8947 70.6192 30.1151C71.1837 30.3355 71.6688 30.7208 72.0113 31.2207C72.3539 31.7207 72.5379 32.3122 72.5396 32.9182C72.5584 33.3019 72.5002 33.6855 72.3685 34.0463C72.2367 34.4072 72.034 34.738 71.7724 35.0193C71.5107 35.3006 71.1954 35.5266 70.845 35.6841C70.4946 35.8416 70.1162 35.9273 69.7321 35.9362H69.7438ZM56.7711 29.4791V31.5847H61.8245C61.7453 32.5764 61.333 33.5122 60.6547 34.24C60.1492 34.755 59.5414 35.1584 58.8705 35.4244C58.1996 35.6903 57.4805 35.8128 56.7594 35.7841C55.2703 35.7841 53.8421 35.1926 52.7891 34.1396C51.7361 33.0866 51.1445 31.6584 51.1445 30.1693C51.1445 28.6801 51.7361 27.2519 52.7891 26.1989C53.8421 25.1459 55.2703 24.5544 56.7594 24.5544C58.184 24.5311 59.5596 25.0738 60.5846 26.0634L62.0702 24.5778C61.3782 23.8771 60.5527 23.3225 59.6424 22.9467C58.7322 22.571 57.7558 22.3818 56.7711 22.3903C55.7312 22.3498 54.6938 22.5197 53.7211 22.8898C52.7484 23.2598 51.8604 23.8224 51.1103 24.5439C50.3603 25.2653 49.7636 26.1307 49.356 27.0883C48.9484 28.0459 48.7383 29.0759 48.7383 30.1166C48.7383 31.1573 48.9484 32.1873 49.356 33.1449C49.7636 34.1025 50.3603 34.9679 51.1103 35.6894C51.8604 36.4108 52.7484 36.9734 53.7211 37.3435C54.6938 37.7135 55.7312 37.8834 56.7711 37.8429C57.7724 37.8882 58.7717 37.7184 59.7019 37.3451C60.6321 36.9719 61.4715 36.4037 62.1637 35.6788C63.3893 34.3324 64.0436 32.5623 63.9886 30.7424C63.9923 30.2991 63.9532 29.8564 63.8716 29.4206L56.7711 29.4791ZM109.773 31.1168C109.468 30.2192 108.898 29.4356 108.137 28.8695C107.377 28.3034 106.463 27.9816 105.515 27.9467C104.875 27.9454 104.242 28.0754 103.654 28.3287C103.067 28.5819 102.537 28.9529 102.099 29.4189C101.66 29.8848 101.322 30.4358 101.105 31.0377C100.888 31.6395 100.796 32.2796 100.836 32.9182C100.822 33.572 100.94 34.2219 101.182 34.8292C101.425 35.4365 101.787 35.9887 102.248 36.4527C102.709 36.9168 103.258 37.2832 103.864 37.5301C104.47 37.777 105.119 37.8993 105.773 37.8897C106.591 37.8941 107.397 37.6955 108.12 37.3117C108.843 36.9279 109.459 36.3709 109.914 35.6905L108.217 34.5208C107.964 34.9428 107.606 35.2919 107.177 35.5338C106.749 35.7758 106.265 35.9023 105.773 35.9011C105.266 35.9204 104.765 35.7868 104.335 35.5177C103.906 35.2486 103.567 34.8564 103.363 34.3921L110.019 31.6432L109.773 31.1168ZM102.989 32.7778C102.965 32.416 103.014 32.0531 103.132 31.7103C103.25 31.3676 103.436 31.0519 103.677 30.7817C103.919 30.5116 104.213 30.2924 104.54 30.137C104.868 29.9816 105.223 29.8932 105.585 29.8768C105.963 29.8519 106.339 29.9385 106.668 30.1256C106.996 30.3128 107.263 30.5924 107.434 30.9296L102.989 32.7778ZM97.5842 37.5973H99.7717V22.9752H97.5842V37.5973ZM94.0047 29.058H93.9229C93.5932 28.6894 93.1893 28.3946 92.7378 28.193C92.2862 27.9914 91.7971 27.8876 91.3026 27.8882C90.0243 27.9502 88.8188 28.5017 87.936 29.4283C87.0532 30.3549 86.5608 31.5857 86.5608 32.8656C86.5608 34.1454 87.0532 35.3762 87.936 36.3028C88.8188 37.2295 90.0243 37.7809 91.3026 37.8429C91.7983 37.8512 92.2898 37.7508 92.7425 37.5487C93.1952 37.3466 93.5981 37.0477 93.9229 36.6731H93.993V37.3867C93.993 39.2934 92.9754 40.3111 91.3377 40.3111C90.7922 40.2983 90.2629 40.1236 89.8171 39.809C89.3714 39.4945 89.0293 39.0544 88.8344 38.5448L86.9277 39.3402C87.2866 40.2133 87.8981 40.9592 88.6839 41.4823C89.4696 42.0055 90.3937 42.282 91.3377 42.2763C93.8995 42.2763 96.0167 40.7673 96.0167 37.0943V28.2391H94.0047V29.058ZM91.5015 35.9362C90.7469 35.8697 90.0446 35.523 89.5331 34.9643C89.0215 34.4057 88.7377 33.6757 88.7377 32.9182C88.7377 32.1607 89.0215 31.4307 89.5331 30.8721C90.0446 30.3134 90.7469 29.9667 91.5015 29.9002C91.8756 29.9194 92.2421 30.0133 92.5793 30.1763C92.9166 30.3393 93.2179 30.5682 93.4653 30.8495C93.7128 31.1307 93.9014 31.4586 94.0202 31.8139C94.139 32.1692 94.1854 32.5447 94.1568 32.9182C94.1887 33.2933 94.1442 33.671 94.026 34.0285C93.9078 34.3859 93.7183 34.7157 93.469 34.9978C93.2197 35.2799 92.9157 35.5085 92.5755 35.6698C92.2353 35.8311 91.866 35.9217 91.4897 35.9362H91.5015ZM120.02 22.9752H114.791V37.5973H116.979V32.0526H120.032C120.655 32.0974 121.281 32.0132 121.871 31.8054C122.46 31.5976 123.001 31.2706 123.458 30.8448C123.916 30.4189 124.281 29.9034 124.53 29.3303C124.78 28.7573 124.908 28.1389 124.908 27.5139C124.908 26.8888 124.78 26.2705 124.53 25.6974C124.281 25.1244 123.916 24.6088 123.458 24.183C123.001 23.7571 122.46 23.4301 121.871 23.2223C121.281 23.0145 120.655 22.9304 120.032 22.9752H120.02ZM120.02 29.9938H116.967V25.0106H120.067C120.733 25.0106 121.371 25.2749 121.841 25.7455C122.312 26.2161 122.576 26.8543 122.576 27.5197C122.576 28.1852 122.312 28.8234 121.841 29.294C121.371 29.7645 120.733 30.0289 120.067 30.0289L120.02 29.9938ZM133.508 27.8882C132.711 27.8406 131.918 28.0267 131.226 28.4236C130.534 28.8206 129.973 29.411 129.612 30.1225L131.554 30.9296C131.746 30.5767 132.036 30.2871 132.389 30.0961C132.742 29.905 133.143 29.8207 133.543 29.8534C133.821 29.821 134.102 29.8442 134.37 29.9216C134.639 29.9991 134.89 30.1293 135.107 30.3046C135.325 30.4799 135.506 30.6968 135.639 30.9427C135.772 31.1886 135.855 31.4585 135.882 31.7367V31.8888C135.18 31.5168 134.396 31.324 133.601 31.3273C131.507 31.3273 129.39 32.4971 129.39 34.6144C129.411 35.0658 129.522 35.5085 129.717 35.9164C129.911 36.3242 130.186 36.6888 130.524 36.9887C130.862 37.2886 131.257 37.5177 131.685 37.6624C132.113 37.8071 132.566 37.8645 133.016 37.8312C133.567 37.8708 134.119 37.7613 134.613 37.5143C135.107 37.2673 135.525 36.8919 135.824 36.4275H135.894V37.5973H138V31.9707C138 29.4089 136.058 27.9233 133.566 27.9233L133.508 27.8882ZM133.239 35.9011C132.525 35.9011 131.531 35.5385 131.531 34.6611C131.531 33.4914 132.771 33.1054 133.87 33.1054C134.565 33.0882 135.252 33.2579 135.859 33.5967C135.786 34.23 135.486 34.8155 135.016 35.2454C134.545 35.6753 133.935 35.9207 133.297 35.9362L133.239 35.9011ZM145.673 28.2391L143.17 34.5793H143.1L140.503 28.2391H138.163L142.059 37.106L139.836 42.0307H142.117L148.106 28.2391H145.673ZM126.01 37.5973H128.197V22.9752H126.01V37.5973Z" fill="#0025E4"/>
<path d="M13.2633 39.9542L27.5937 25.0908L13.2754 10.2542C12.8929 10.4851 12.6562 11.02 12.6562 11.7201V38.5025C12.6614 39.2026 12.8895 39.6983 13.2633 39.9542Z" fill="url(#paint0_linear)"/>
<path d="M28.1065 24.6796L32.3751 20.2517L14.9921 10.3654C14.6994 10.189 14.3669 10.0958 14.0283 10.0953L28.1048 24.6779L28.1065 24.6796Z" fill="url(#paint1_linear)"/>
<path d="M28.1054 25.5023L13.9844 40.1489C14.3388 40.155 14.6879 40.0591 14.9928 39.8717L32.41 29.9587L28.1054 25.5023Z" fill="url(#paint2_linear)"/>
<path d="M38.6727 23.8393L32.8881 20.5433L28.5029 25.092L32.9207 29.6692L38.671 26.382C39.8938 25.6837 39.8937 24.5341 38.6727 23.8393Z" fill="url(#paint3_linear)"/>
<path d="M54.0649 11.4558C53.3814 11.4558 52.8439 11.698 52.4524 12.1824C52.0609 12.6668 51.8651 13.3354 51.8651 14.1881C51.8651 15.0806 52.0526 15.7558 52.4275 16.2136C52.8058 16.6715 53.3515 16.9004 54.0649 16.9004C54.3734 16.9004 54.6721 16.8706 54.9607 16.8108C55.2494 16.7478 55.5496 16.6682 55.8615 16.572V17.5922C55.2908 17.8079 54.6439 17.9157 53.9206 17.9157C52.8555 17.9157 52.0377 17.5939 51.467 16.9502C50.8963 16.3032 50.611 15.3792 50.611 14.1781C50.611 13.4216 50.7487 12.7597 51.0241 12.1924C51.3028 11.625 51.7042 11.1904 52.2284 10.8884C52.7527 10.5865 53.3681 10.4356 54.0748 10.4356C54.818 10.4356 55.5048 10.5915 56.1352 10.9034L55.7072 11.8938C55.4617 11.7776 55.2013 11.6764 54.9259 11.5902C54.6538 11.5006 54.3668 11.4558 54.0649 11.4558ZM62.8093 17.8162H61.4109L58.4148 14.1283V17.8162H57.2254V10.5401H58.4148V14.0636L61.3611 10.5401H62.665L59.7287 14.0537L62.8093 17.8162ZM68.085 17.8162L67.3583 15.7956H64.5763L63.8646 17.8162H62.6105L65.3328 10.5102H66.6267L69.3491 17.8162H68.085ZM67.0448 14.7704L66.363 12.7896C66.3132 12.6569 66.2435 12.4478 66.154 12.1625C66.0677 11.8772 66.008 11.6681 65.9748 11.5354C65.8852 11.9435 65.7541 12.3898 65.5816 12.8742L64.9247 14.7704H67.0448ZM75.4359 17.8162H74.2415V14.9097C73.7936 15.069 73.3937 15.1834 73.0421 15.2531C72.6937 15.3228 72.342 15.3576 71.987 15.3576C71.3002 15.3576 70.7693 15.1967 70.3944 14.8749C70.0228 14.5497 69.837 14.0902 69.837 13.4963V10.5401H71.0314V13.2176C71.0314 13.5958 71.1243 13.8778 71.3101 14.0636C71.4992 14.2494 71.8078 14.3424 72.2358 14.3424C72.551 14.3424 72.8579 14.3141 73.1565 14.2577C73.4551 14.198 73.8168 14.0968 74.2415 13.9542V10.5401H75.4359V17.8162ZM81.6621 17.8162L80.9355 15.7956H78.1534L77.4417 17.8162H76.1876L78.9099 10.5102H80.2039L82.9262 17.8162H81.6621ZM80.6219 14.7704L79.9401 12.7896C79.8903 12.6569 79.8207 12.4478 79.7311 12.1625C79.6448 11.8772 79.5851 11.6681 79.5519 11.5354C79.4623 11.9435 79.3313 12.3898 79.1587 12.8742L78.5018 14.7704H80.6219ZM86.1962 17.8162H85.0067V11.5603H82.8667V10.5401H88.3362V11.5603H86.1962V17.8162ZM94.3235 15.6264C94.3235 16.3397 94.0829 16.8838 93.6018 17.2588C93.1241 17.6304 92.4306 17.8162 91.5215 17.8162H89.2521V10.5401H90.4416V13.4963H91.4718C92.3941 13.4963 93.0992 13.6804 93.5869 14.0487C94.078 14.4137 94.3235 14.9396 94.3235 15.6264ZM90.4416 16.8158H91.4419C91.9761 16.8158 92.3858 16.7229 92.6712 16.5371C92.9598 16.348 93.1042 16.0444 93.1042 15.6264C93.1042 15.2349 92.9665 14.9479 92.6911 14.7654C92.4157 14.5829 91.9545 14.4917 91.3075 14.4917H90.4416V16.8158ZM98.0216 10.5401H100.182C101.184 10.5401 101.907 10.6861 102.351 10.978C102.799 11.27 103.023 11.7312 103.023 12.3616C103.023 12.7863 102.914 13.1396 102.695 13.4216C102.476 13.7037 102.161 13.8812 101.749 13.9542V14.0039C102.26 14.1001 102.635 14.2909 102.874 14.5763C103.116 14.8583 103.237 15.2415 103.237 15.7259C103.237 16.3795 103.008 16.8921 102.551 17.2637C102.096 17.632 101.462 17.8162 100.649 17.8162H98.0216V10.5401ZM99.2111 13.5461H100.356C100.853 13.5461 101.217 13.4681 101.446 13.3122C101.675 13.1529 101.789 12.8841 101.789 12.5059C101.789 12.1642 101.665 11.917 101.416 11.7644C101.17 11.6117 100.779 11.5354 100.241 11.5354H99.2111V13.5461ZM99.2111 14.5116V16.8158H100.475C100.973 16.8158 101.348 16.7213 101.6 16.5321C101.855 16.3397 101.983 16.0378 101.983 15.6264C101.983 15.2481 101.854 14.9678 101.595 14.7853C101.336 14.6028 100.943 14.5116 100.415 14.5116H99.2111Z" fill="#0025E4"/>
<defs>
<linearGradient id="paint0_linear" x1="12.6562" y1="10.2542" x2="35.1502" y2="17.9945" gradientUnits="userSpaceOnUse">
<stop stop-color="#FED466"/>
<stop offset="1" stop-color="#FEA500"/>
</linearGradient>
<linearGradient id="paint1_linear" x1="14.0283" y1="10.0953" x2="31.7785" y2="25.3728" gradientUnits="userSpaceOnUse">
<stop stop-color="#FED466"/>
<stop offset="1" stop-color="#FEA500"/>
</linearGradient>
<linearGradient id="paint2_linear" x1="13.9844" y1="25.5023" x2="31.8106" y2="40.8456" gradientUnits="userSpaceOnUse">
<stop stop-color="#FED466"/>
<stop offset="1" stop-color="#FEA500"/>
</linearGradient>
<linearGradient id="paint3_linear" x1="28.5029" y1="20.5433" x2="39.5454" y2="29.7207" gradientUnits="userSpaceOnUse">
<stop stop-color="#FED466"/>
<stop offset="1" stop-color="#FEA500"/>
</linearGradient>
</defs>
</svg>
