<svg width="142" height="50" viewBox="0 0 142 50" fill="none" xmlns="http://www.w3.org/2000/svg">
<path d="M8.18046 0.802186C4.21187 0.802186 0.994691 4.01936 0.994691 7.98795V41.1928C0.994691 45.1614 4.21187 48.3786 8.18046 48.3786H133.337C137.306 48.3786 140.523 45.1614 140.523 41.1928V7.98796C140.523 4.01937 137.306 0.802186 133.337 0.802186H8.18046Z" fill="white" stroke="#CAD6FE" stroke-width="1.60046"/>
<path d="M53.8608 11.5852C53.1773 11.5852 52.6398 11.8274 52.2483 12.3118C51.8568 12.7962 51.661 13.4648 51.661 14.3175C51.661 15.21 51.8485 15.8852 52.2234 16.343C52.6017 16.8009 53.1474 17.0298 53.8608 17.0298C54.1693 17.0298 54.468 17 54.7566 16.9402C55.0453 16.8772 55.3455 16.7976 55.6574 16.7014V17.7216C55.0867 17.9373 54.4398 18.0451 53.7165 18.0451C52.6514 18.0451 51.8336 17.7233 51.2629 17.0796C50.6922 16.4326 50.4069 15.5086 50.4069 14.3075C50.4069 13.551 50.5446 12.8891 50.82 12.3218C51.0987 11.7544 51.5001 11.3198 52.0243 11.0178C52.5486 10.7159 53.164 10.565 53.8707 10.565C54.6139 10.565 55.3007 10.7209 55.9311 11.0328L55.5031 12.0232C55.2576 11.907 54.9972 11.8058 54.7218 11.7196C54.4497 11.63 54.1627 11.5852 53.8608 11.5852ZM62.6052 17.9456H61.2068L58.2107 14.2577V17.9456H57.0213V10.6695H58.2107V14.193L61.157 10.6695H62.4609L59.5246 14.1831L62.6052 17.9456ZM67.8809 17.9456L67.1542 15.925H64.3722L63.6605 17.9456H62.4064L65.1287 10.6396H66.4226L69.145 17.9456H67.8809ZM66.8407 14.8998L66.1589 12.919C66.1091 12.7863 66.0394 12.5772 65.9498 12.2919C65.8636 12.0066 65.8039 11.7975 65.7707 11.6648C65.6811 12.0729 65.55 12.5192 65.3775 13.0036L64.7206 14.8998H66.8407ZM75.2318 17.9456H74.0374V15.0391C73.5894 15.1984 73.1896 15.3128 72.838 15.3825C72.4896 15.4522 72.1379 15.487 71.7829 15.487C71.0961 15.487 70.5652 15.3261 70.1903 15.0043C69.8187 14.6791 69.6329 14.2196 69.6329 13.6257V10.6695H70.8273V13.347C70.8273 13.7252 70.9202 14.0072 71.106 14.193C71.2951 14.3788 71.6037 14.4717 72.0317 14.4717C72.3469 14.4717 72.6538 14.4435 72.9524 14.3871C73.251 14.3274 73.6127 14.2262 74.0374 14.0836V10.6695H75.2318V17.9456ZM81.458 17.9456L80.7314 15.925H77.9493L77.2376 17.9456H75.9835L78.7058 10.6396H79.9998L82.7221 17.9456H81.458ZM80.4178 14.8998L79.736 12.919C79.6862 12.7863 79.6166 12.5772 79.527 12.2919C79.4407 12.0066 79.381 11.7975 79.3478 11.6648C79.2582 12.0729 79.1272 12.5192 78.9546 13.0036L78.2977 14.8998H80.4178ZM85.992 17.9456H84.8026V11.6897H82.6626V10.6695H88.1321V11.6897H85.992V17.9456ZM94.1194 15.7558C94.1194 16.4691 93.8788 17.0132 93.3977 17.3882C92.92 17.7598 92.2265 17.9456 91.3174 17.9456H89.048V10.6695H90.2375V13.6257H91.2677C92.19 13.6257 92.8951 13.8098 93.3828 14.1781C93.8739 14.5431 94.1194 15.069 94.1194 15.7558ZM90.2375 16.9452H91.2378C91.772 16.9452 92.1817 16.8523 92.4671 16.6665C92.7557 16.4774 92.9001 16.1738 92.9001 15.7558C92.9001 15.3643 92.7624 15.0773 92.487 14.8948C92.2116 14.7123 91.7504 14.621 91.1034 14.621H90.2375V16.9452ZM97.8175 10.6695H99.9775C100.979 10.6695 101.703 10.8155 102.147 11.1074C102.595 11.3994 102.819 11.8606 102.819 12.491C102.819 12.9157 102.71 13.269 102.491 13.551C102.272 13.8331 101.957 14.0106 101.545 14.0836V14.1333C102.056 14.2295 102.431 14.4203 102.67 14.7057C102.912 14.9877 103.033 15.3709 103.033 15.8553C103.033 16.5089 102.804 17.0215 102.346 17.3931C101.892 17.7614 101.258 17.9456 100.445 17.9456H97.8175V10.6695ZM99.007 13.6755H100.152C100.649 13.6755 101.013 13.5975 101.242 13.4415C101.471 13.2823 101.585 13.0135 101.585 12.6353C101.585 12.2936 101.461 12.0464 101.212 11.8938C100.966 11.7411 100.575 11.6648 100.037 11.6648H99.007V13.6755ZM99.007 14.641V16.9452H100.271C100.769 16.9452 101.144 16.8507 101.396 16.6615C101.651 16.4691 101.779 16.1672 101.779 15.7558C101.779 15.3775 101.65 15.0972 101.391 14.9147C101.132 14.7322 100.739 14.641 100.211 14.641H99.007Z" fill="#0025E4"/>
<path d="M32.9615 24.9022C32.9275 21.1212 36.0574 19.2818 36.2005 19.1961C34.4279 16.6117 31.6804 16.2586 30.715 16.2304C28.4074 15.9876 26.1691 17.6112 24.9936 17.6112C23.7947 17.6112 21.9845 16.2539 20.0336 16.2938C17.5231 16.3325 15.1745 17.786 13.8864 20.0431C11.2281 24.6453 13.2107 31.4084 15.7576 35.1284C17.0316 36.9503 18.5203 38.9845 20.4689 38.9129C22.3752 38.8343 23.0873 37.6975 25.3878 37.6975C27.6672 37.6975 28.3359 38.9129 30.3231 38.8672C32.3691 38.8343 33.6572 37.0371 34.8866 35.1988C36.3589 33.1106 36.9501 31.0541 36.9736 30.9485C36.9255 30.9321 33.0002 29.434 32.9615 24.9022Z" fill="url(#paint0_linear)"/>
<path d="M29.2078 13.7834C30.2331 12.5011 30.9347 10.7567 30.7399 8.98645C29.2559 9.05215 27.4 10.0129 26.3313 11.267C25.3858 12.3721 24.5411 14.1834 24.7593 15.8868C26.4263 16.0111 28.1379 15.0457 29.2078 13.7834Z" fill="url(#paint1_linear)"/>
<path d="M60.9102 37.6427H58.6654L57.4357 33.7787H53.1616L51.9902 37.6427H49.8047L54.0393 24.488H56.6548L60.9102 37.6427ZM57.0651 32.1576L55.953 28.7227C55.8354 28.3718 55.615 27.5454 55.2897 26.2446H55.2502C55.1207 26.804 54.9121 27.6304 54.6255 28.7227L53.5332 32.1576H57.0651Z" fill="#0025E4"/>
<path d="M71.1677 32.7825C71.1677 34.3957 70.7318 35.6708 69.86 36.6069C69.0791 37.4402 68.1094 37.8563 66.9519 37.8563C65.7024 37.8563 64.8049 37.4076 64.2583 36.51H64.2187V41.5068H62.1113V31.279C62.1113 30.2648 62.0846 29.224 62.0332 28.1564H63.8866L64.0042 29.6599H64.0438C64.7466 28.5271 65.8131 27.9617 67.2445 27.9617C68.3634 27.9617 69.2975 28.4035 70.0448 29.2882C70.7941 30.1739 71.1677 31.3383 71.1677 32.7825ZM69.0208 32.8596C69.0208 31.9363 68.8132 31.1752 68.396 30.5762C67.9404 29.9515 67.3285 29.6391 66.5614 29.6391C66.0415 29.6391 65.569 29.8131 65.1469 30.1561C64.7238 30.5021 64.4471 30.9538 64.3176 31.5133C64.2523 31.7742 64.2197 31.9877 64.2197 32.1558V33.7373C64.2197 34.4273 64.4313 35.0095 64.8543 35.485C65.2774 35.9604 65.827 36.1977 66.5031 36.1977C67.2969 36.1977 67.9146 35.8912 68.3565 35.2804C68.7993 34.6685 69.0208 33.8619 69.0208 32.8596Z" fill="#0025E4"/>
<path d="M81.4255 32.7825C81.4255 34.3957 80.9896 35.6708 80.1168 36.6069C79.3369 37.4402 78.3672 37.8563 77.2097 37.8563C75.9602 37.8563 75.0627 37.4076 74.5171 36.51H74.4775V41.5068H72.3701V31.279C72.3701 30.2648 72.3434 29.224 72.292 28.1564H74.1454L74.263 29.6599H74.3026C75.0044 28.5271 76.0709 27.9617 77.5033 27.9617C78.6212 27.9617 79.5553 28.4035 80.3046 29.2882C81.0509 30.1739 81.4255 31.3383 81.4255 32.7825ZM79.2786 32.8596C79.2786 31.9363 79.07 31.1752 78.6528 30.5762C78.1972 29.9515 77.5873 29.6391 76.8192 29.6391C76.2983 29.6391 75.8268 29.8131 75.4037 30.1561C74.9807 30.5021 74.7049 30.9538 74.5754 31.5133C74.5111 31.7742 74.4775 31.9877 74.4775 32.1558V33.7373C74.4775 34.4273 74.6891 35.0095 75.1101 35.485C75.5332 35.9594 76.0828 36.1977 76.7609 36.1977C77.5547 36.1977 78.1725 35.8912 78.6143 35.2804C79.0571 34.6685 79.2786 33.8619 79.2786 32.8596Z" fill="#0025E4"/>
<path d="M94.906 33.9529C94.906 35.0719 94.5175 35.9823 93.7376 36.6851C92.8806 37.4531 91.6875 37.8366 90.1544 37.8366C88.7389 37.8366 87.6041 37.5638 86.7451 37.0172L87.2334 35.2607C88.1586 35.8201 89.1738 36.1009 90.2799 36.1009C91.0737 36.1009 91.6915 35.921 92.1353 35.5631C92.5771 35.2053 92.7976 34.7249 92.7976 34.1259C92.7976 33.5921 92.6157 33.1424 92.2509 32.7776C91.8882 32.4129 91.2822 32.0738 90.4361 31.7605C88.1329 30.9015 86.9824 29.6431 86.9824 27.9884C86.9824 26.907 87.3857 26.0204 88.1932 25.3304C88.9979 24.6395 90.0713 24.2945 91.4137 24.2945C92.6107 24.2945 93.6052 24.5031 94.3989 24.9192L93.872 26.6372C93.1307 26.2339 92.2925 26.0322 91.3544 26.0322C90.613 26.0322 90.0338 26.2151 89.6186 26.5789C89.2677 26.9041 89.0918 27.3005 89.0918 27.77C89.0918 28.2899 89.2924 28.7199 89.6957 29.058C90.0466 29.3703 90.6842 29.7084 91.6094 30.0731C92.7412 30.5288 93.5725 31.0616 94.1073 31.6725C94.6401 32.2814 94.906 33.0435 94.906 33.9529Z" fill="#0025E4"/>
<path d="M101.644 29.7379H99.3209V34.3432C99.3209 35.5146 99.7302 36.0998 100.551 36.0998C100.927 36.0998 101.24 36.0671 101.487 36.0019L101.545 37.6023C101.13 37.7574 100.583 37.8355 99.9061 37.8355C99.0738 37.8355 98.4234 37.5815 97.9539 37.0744C97.4863 36.5663 97.251 35.7143 97.251 34.5172V29.7359H95.8672V28.1544H97.251V26.4176L99.3209 25.7929V28.1544H101.644V29.7379Z" fill="#0025E4"/>
<path d="M111.891 32.8209C111.891 34.2789 111.474 35.4759 110.642 36.412C109.769 37.3758 108.611 37.8562 107.166 37.8562C105.775 37.8562 104.667 37.3946 103.84 36.4713C103.014 35.5481 102.601 34.3827 102.601 32.9781C102.601 31.5082 103.026 30.3042 103.879 29.3681C104.73 28.4311 105.878 27.9625 107.323 27.9625C108.714 27.9625 109.834 28.4241 110.679 29.3484C111.488 30.2449 111.891 31.4024 111.891 32.8209ZM109.705 32.8891C109.705 32.0143 109.518 31.264 109.139 30.6383C108.698 29.8812 108.066 29.5036 107.247 29.5036C106.4 29.5036 105.757 29.8821 105.315 30.6383C104.936 31.265 104.75 32.0271 104.75 32.9286C104.75 33.8034 104.936 34.5537 105.315 35.1784C105.771 35.9356 106.407 36.3132 107.229 36.3132C108.033 36.3132 108.665 35.9277 109.121 35.1586C109.509 34.5211 109.705 33.7629 109.705 32.8891Z" fill="#0025E4"/>
<path d="M117.924 30.0098C117.716 29.9712 117.493 29.9515 117.26 29.9515C116.519 29.9515 115.946 30.2312 115.542 30.7917C115.191 31.2859 115.015 31.9106 115.015 32.6648V37.6418H112.909L112.929 31.1436C112.929 30.0503 112.902 29.0549 112.85 28.1574H114.685L114.762 29.9722H114.821C115.043 29.3485 115.394 28.8464 115.874 28.4697C116.344 28.1307 116.851 27.9617 117.398 27.9617C117.592 27.9617 117.768 27.9755 117.924 28.0002V30.0098Z" fill="#0025E4"/>
<path d="M127.034 32.4503C127.034 32.8279 127.01 33.1462 126.957 33.4062H120.635C120.66 34.3433 120.965 35.0599 121.552 35.5541C122.085 35.996 122.774 36.2174 123.62 36.2174C124.556 36.2174 125.41 36.0681 126.178 35.7686L126.508 37.2316C125.611 37.623 124.551 37.8178 123.328 37.8178C121.858 37.8178 120.703 37.3848 119.863 36.5199C119.025 35.655 118.604 34.4935 118.604 33.0365C118.604 31.6062 118.995 30.415 119.777 29.4651C120.595 28.4509 121.701 27.9438 123.093 27.9438C124.46 27.9438 125.495 28.4509 126.198 29.4651C126.754 30.2707 127.034 31.2671 127.034 32.4503ZM125.025 31.9037C125.039 31.279 124.901 30.7393 124.615 30.2836C124.251 29.6974 123.69 29.4048 122.936 29.4048C122.247 29.4048 121.687 29.6905 121.259 30.2638C120.908 30.7195 120.699 31.2661 120.635 31.9027H125.025V31.9037Z" fill="#0025E4"/>
<defs>
<linearGradient id="paint0_linear" x1="12.624" y1="16.2057" x2="39.2847" y2="35.7645" gradientUnits="userSpaceOnUse">
<stop stop-color="#FED466"/>
<stop offset="1" stop-color="#FEA500"/>
</linearGradient>
<linearGradient id="paint1_linear" x1="24.7246" y1="8.98645" x2="32.2225" y2="13.4757" gradientUnits="userSpaceOnUse">
<stop stop-color="#FED466"/>
<stop offset="1" stop-color="#FEA500"/>
</linearGradient>
</defs>
</svg>
