<svg width="48" height="32" viewBox="0 0 48 32" fill="none" xmlns="http://www.w3.org/2000/svg">
<rect width="48" height="32" rx="2" fill="#EFF2FF"/>
<g clip-path="url(#clip0_2760_8342)">
<rect width="44" height="30.1481" transform="translate(2 1)" fill="#EFF2FF"/>
<path fill-rule="evenodd" clip-rule="evenodd" d="M24.5795 14.2559C24.5594 15.8924 25.9925 16.8057 27.0719 17.3487C28.1811 17.9058 28.5536 18.2631 28.5494 18.7613C28.541 19.5238 27.6646 19.8602 26.8444 19.8733C25.4135 19.8963 24.5816 19.4746 23.9201 19.1556L23.4048 21.6453C24.0683 21.9611 25.2971 22.2364 26.5714 22.2484C29.5623 22.2484 31.5191 20.7244 31.5297 18.3614C31.5414 15.3626 27.5112 15.1965 27.5387 13.8561C27.5482 13.4497 27.9239 13.0159 28.7473 12.9056C29.1548 12.85 30.2798 12.8073 31.5551 13.4136L32.0557 11.0048C31.3699 10.7469 30.4883 10.5 29.3908 10.5C26.5756 10.5 24.5954 12.0447 24.5795 14.2559ZM36.866 10.7076C36.3198 10.7076 35.8594 11.0364 35.6541 11.5411L31.3815 22.0714H34.3703L34.9651 20.3748H38.6175L38.9625 22.0714H41.5967L39.298 10.7076H36.866ZM37.284 13.7774L38.1465 18.0445H35.7843L37.284 13.7774ZM20.9558 10.7076L18.5999 22.0714H21.4479L23.8027 10.7076H20.9558ZM16.7425 10.7076L13.778 18.4422L12.5789 11.8656C12.4381 11.1315 11.8825 10.7076 11.2654 10.7076H6.41932L6.35156 11.0375C7.34645 11.2604 8.47676 11.6198 9.16148 12.0044C9.58055 12.2392 9.70021 12.4446 9.83775 13.0028L12.109 22.0714H15.119L19.7334 10.7076H16.7425Z" fill="#8296FF"/>
<g style="mix-blend-mode:color">
<rect x="-65.6016" y="-3.08008" width="237.111" height="39.1111" fill="#0025E4"/>
</g>
</g>
<defs>
<clipPath id="clip0_2760_8342">
<rect width="44" height="30.1481" fill="white" transform="translate(2 1)"/>
</clipPath>
</defs>
</svg>
