<svg width="16" height="16" viewBox="0 0 16 16" fill="none" xmlns="http://www.w3.org/2000/svg">
<g clip-path="url(#clip0_2749_13337)">
<path d="M13.9987 3.99962H10.6654V2.88628C10.6497 2.4595 10.4655 2.05632 10.1531 1.76515C9.84066 1.47397 9.42553 1.31855 8.9987 1.33295H6.9987C6.57187 1.31855 6.15674 1.47397 5.84432 1.76515C5.53189 2.05632 5.34767 2.4595 5.33203 2.88628V3.99962H1.9987C1.82189 3.99962 1.65232 4.06985 1.52729 4.19488C1.40227 4.3199 1.33203 4.48947 1.33203 4.66628C1.33203 4.84309 1.40227 5.01266 1.52729 5.13769C1.65232 5.26271 1.82189 5.33295 1.9987 5.33295H2.66536V12.6663C2.66536 13.1967 2.87608 13.7054 3.25115 14.0805C3.62622 14.4556 4.13493 14.6663 4.66536 14.6663H11.332C11.8625 14.6663 12.3712 14.4556 12.7462 14.0805C13.1213 13.7054 13.332 13.1967 13.332 12.6663V5.33295H13.9987C14.1755 5.33295 14.3451 5.26271 14.4701 5.13769C14.5951 5.01266 14.6654 4.84309 14.6654 4.66628C14.6654 4.48947 14.5951 4.3199 14.4701 4.19488C14.3451 4.06985 14.1755 3.99962 13.9987 3.99962ZM6.66536 2.88628C6.66536 2.77962 6.80536 2.66628 6.9987 2.66628H8.9987C9.19203 2.66628 9.33203 2.77962 9.33203 2.88628V3.99962H6.66536V2.88628ZM11.9987 12.6663C11.9987 12.8431 11.9285 13.0127 11.8034 13.1377C11.6784 13.2627 11.5088 13.333 11.332 13.333H4.66536C4.48855 13.333 4.31898 13.2627 4.19396 13.1377C4.06894 13.0127 3.9987 12.8431 3.9987 12.6663V5.33295H11.9987V12.6663Z" fill="#0025E4"/>
<path d="M5.9987 11.334C6.17551 11.334 6.34508 11.2637 6.4701 11.1387C6.59513 11.0137 6.66536 10.8441 6.66536 10.6673V8.00065C6.66536 7.82384 6.59513 7.65427 6.4701 7.52925C6.34508 7.40422 6.17551 7.33398 5.9987 7.33398C5.82189 7.33398 5.65232 7.40422 5.52729 7.52925C5.40227 7.65427 5.33203 7.82384 5.33203 8.00065V10.6673C5.33203 10.8441 5.40227 11.0137 5.52729 11.1387C5.65232 11.2637 5.82189 11.334 5.9987 11.334Z" fill="#0025E4"/>
<path d="M9.9987 11.334C10.1755 11.334 10.3451 11.2637 10.4701 11.1387C10.5951 11.0137 10.6654 10.8441 10.6654 10.6673V8.00065C10.6654 7.82384 10.5951 7.65427 10.4701 7.52925C10.3451 7.40422 10.1755 7.33398 9.9987 7.33398C9.82189 7.33398 9.65232 7.40422 9.52729 7.52925C9.40227 7.65427 9.33203 7.82384 9.33203 8.00065V10.6673C9.33203 10.8441 9.40227 11.0137 9.52729 11.1387C9.65232 11.2637 9.82189 11.334 9.9987 11.334Z" fill="#0025E4"/>
</g>
<defs>
<clipPath id="clip0_2749_13337">
<rect width="16" height="16" fill="white"/>
</clipPath>
</defs>
</svg>
